<svg width="329" height="189" viewBox="0 0 329 189" fill="none" xmlns="http://www.w3.org/2000/svg">
<rect width="329" height="189" fill="#F5F5F5"/>
<g id="both-group">
<path id="blue" d="M164.385 93.5381C161.994 92.501 162.003 89.1055 164.399 88.0433L249.126 50.4844C251.11 49.6047 253.329 51.0452 253.323 53.2098L253.127 127.44C253.122 129.604 250.895 131.068 248.915 130.209L164.385 93.5381Z" fill="#2F72D6" fill-opacity="0.71"/>
<path id="violet" d="M101.262 93.8007C98.876 92.7327 98.8999 89.337 101.301 88.3059L186.274 51.8143C188.262 50.9604 190.474 52.4297 190.459 54.5941L189.935 128.881C189.919 131.046 187.687 132.481 185.711 131.596L101.262 93.8007Z" fill="#BF42D4" fill-opacity="0.78"/>
</g>
<g id="light-group">
<path id="green1" d="M64.3237 94.6746C61.9279 93.643 61.9262 90.245 64.3209 89.1786L149.05 51.4458C151.032 50.5633 153.254 51.9993 153.255 54.1632L153.292 128.397C153.293 130.561 151.072 132.029 149.09 131.175L64.3237 94.6746Z" fill="#33D198" fill-opacity="0.81"/>
</g>
</svg>
